<svg viewBox="0 0 1440, 800" xmlns="http://www.w3.org/2000/svg">
  <defs>
    <!-- Based on the heart from https://thenounproject.com/search/?q=heart&i=585522 -->
    <path id="heart" d="m 31,963.375 c -14.986319,0 -25,12.30467 -25,26 0,12.8493 7.296975,23.9547 16.21875,32.7188 8.921775,8.764 19.568704,15.2612 26.875,19.0312 a 2.0002,2.0002 0 0 0 1.8125,0 c 7.306296,-3.77 17.953225,-10.2672 26.875,-19.0312 C 86.703025,1013.3297 94,1002.2243 94,989.375 c 0,-13.69533 -10.013684,-26 -25,-26 -8.834204,0 -14.702885,4.50444 -19,10.59375 C 45.702885,967.87944 39.834204,963.375 31,963.375 z"/>

    <!-- This mask clips out the region where the left heart overlaps the right heart -->
    <mask id="exclude-left-heart-overlap">
      <rect x="0" y="0" width="1440" height="800" fill="white"/>
      <g transform="translate(100 110) scale(5.4) rotate(-10 30 30)">
        <use x="5" y="-960" xlink:href="#heart" stroke="black" stroke-width="16" fill="white"/>
      </g>
      <rect x="0" y="375" width="1440" height="375" fill="white"/>
    </mask>

    <!-- This mask only allows stuff *inside* the left-hand heart -->
    <mask id="left-heart-inside-only">
      <rect x="0" y="0" width="1440" height="800" fill="black"/>
      <g transform="translate(100 110) scale(5.4) rotate(-10 30 30)">
        <use x="5" y="-960" xlink:href="#heart" stroke="none" fill="white"/>
      </g>
    </mask>

    <!-- This mask clips out the region where the right heart overlaps the left heart -->
    <mask id="exclude-right-heart-overlap">
      <rect x="0" y="0" width="1440" height="800" fill="white"/>
      <g transform="translate(610 145) scale(5) rotate(10 30 30)">
         <use x="5" y="-960" xlink:href="#heart" stroke="black" stroke-width="15.14" fill="white"/>
       </g>
      <rect x="0" y="0" width="1440" height="375" fill="white"/>
    </mask>

    <!-- This mask only allows stuff *inside* the right-hand heart -->
    <mask id="right-heart-inside-only">
      <rect x="0" y="0" width="1440" height="800" fill="black"/>
      <g transform="translate(610 145) scale(5) rotate(10 30 30)">
         <use x="5" y="-960" xlink:href="#heart" stroke="none" fill="white"/>
       </g>
    </mask>
  </defs>

  {%- set (label, stripe_data) = left_flag -%}
  {%- set stripes = stripe_data.stripes -%}

  <!-- Flag: {{ label }} -->
  <svg mask="url(#exclude-right-heart-overlap)">
    <g transform="translate(100 110) scale(5.4) rotate(-10 30 30)">
      {% set ns = namespace(outer_stroke_width=stroke_width / 2) %}

      {% for s in stripes|outer_stripes %}
        <!-- {{ s }} -->
        <use x="5" y="-960" xlink:href="#heart" stroke="{{ s }}" stroke-width="{{ ns.outer_stroke_width }}" stroke-linecap="round" fill="none"/>
        {%- set ns.outer_stroke_width = ns.outer_stroke_width - (stroke_width / stripes|length) -%}
      {% endfor %}
    </g>

    <svg mask="url(#left-heart-inside-only)">
      {% set ns = namespace(inner_stroke_width=stroke_width / 2) %}

      <g transform="translate(100 110) scale(5.4) rotate(-10 30 30)">
        {% for s in stripes|inner_stripes|reverse %}
          <!-- {{ s }} -->
          <use x="5" y="-960" xlink:href="#heart" stroke="{{ s }}" stroke-width="{{ ns.inner_stroke_width }}" stroke-linecap="round" fill="none"/>
          {%- set ns.inner_stroke_width = ns.inner_stroke_width - (stroke_width / stripes|length) -%}
        {% endfor %}
      </g>
    </svg>

    {% if stripes|middle_stripes %}
    <g transform="translate(100 110) scale(5.4) rotate(-10 30 30)">
      {% for s in stripes|middle_stripes %}
        <!-- {{ s }} -->
        <use x="5" y="-960" xlink:href="#heart" stroke="{{ s }}" stroke-width="{{ stroke_width / stripes|length / 2 }}" stroke-linecap="round" fill="none"/>
      {% endfor %}
    </g>
    {% endif %}
  </svg>

  {%- set (label, stripe_data) = right_flag -%}
  {%- set stripes = stripe_data.stripes -%}

  <!-- Flag: {{ label }} -->

  <svg mask="url(#exclude-left-heart-overlap)">
    <g transform="translate(610 145) scale(5) rotate(10 30 30)">
      {% set ns = namespace(outer_stroke_width=stroke_width / 2) %}

      {% for s in stripes|outer_stripes %}
        <!-- {{ s }} -->
        <use x="5" y="-960" xlink:href="#heart" stroke="{{ s }}" stroke-width="{{ ns.outer_stroke_width }}" stroke-linecap="round" fill="none"/>
        {%- set ns.outer_stroke_width = ns.outer_stroke_width - (stroke_width / stripes|length) -%}
      {% endfor %}
    </g>

    <svg mask="url(#right-heart-inside-only)">
      {% set ns = namespace(inner_stroke_width=stroke_width / 2) %}

      <g transform="translate(610 145) scale(5) rotate(10 30 30)">
        {% for s in stripes|inner_stripes|reverse %}
          <!-- {{ s }} -->
          <use x="5" y="-960" xlink:href="#heart" stroke="{{ s }}" stroke-width="{{ ns.inner_stroke_width }}" stroke-linecap="round" fill="none"/>
          {%- set ns.inner_stroke_width = ns.inner_stroke_width - (stroke_width / stripes|length) -%}
        {% endfor %}
      </g>
    </svg>

    {% if stripes|middle_stripes %}
    <g transform="translate(610 145) scale(5) rotate(10 30 30)">
      {% for s in stripes|middle_stripes %}
        <!-- {{ s }} -->
        <use x="5" y="-960" xlink:href="#heart" stroke="{{ s }}" stroke-width="{{ stroke_width / stripes|length / 2 }}" stroke-linecap="round" fill="none"/>
      {% endfor %}
    </g>
    {% endif %}
  </svg>
</svg>
